<?xml version="1.0" encoding="UTF-8" standalone="no"?>
<!-- Created with Inkscape (http://www.inkscape.org/) -->

<svg
   width="100.00001mm"
   height="100.00001mm"
   viewBox="0 0 100.00001 100.00001"
   version="1.1"
   id="svg1"
   xmlns:inkscape="http://www.inkscape.org/namespaces/inkscape"
   xmlns:sodipodi="http://sodipodi.sourceforge.net/DTD/sodipodi-0.dtd"
   xmlns="http://www.w3.org/2000/svg"
   xmlns:svg="http://www.w3.org/2000/svg">
  <sodipodi:namedview
     id="namedview1"
     pagecolor="#505050"
     bordercolor="#ffffff"
     borderopacity="1"
     inkscape:showpageshadow="0"
     inkscape:pageopacity="0"
     inkscape:pagecheckerboard="1"
     inkscape:deskcolor="#505050"
     inkscape:document-units="mm">
    <inkscape:page
       x="0"
       y="0"
       width="100.00001"
       height="100.00001"
       id="page2"
       margin="0"
       bleed="0" />
  </sodipodi:namedview>
  <defs
     id="defs1" />
  <g
     inkscape:label="Layer 1"
     inkscape:groupmode="layer"
     id="layer1"
     transform="translate(-62.310123,-116.02487)">
    <path
       style="opacity:0.991162;fill:#00ffff;stroke-width:0.685771;paint-order:stroke fill markers"
       id="path3"
       sodipodi:type="arc"
       sodipodi:cx="112.31013"
       sodipodi:cy="166.02487"
       sodipodi:rx="50"
       sodipodi:ry="50"
       sodipodi:start="1.4063895"
       sodipodi:end="1.3658176"
       sodipodi:arc-type="arc"
       d="M 120.49349,215.35065 A 50,50 0 0 1 63.069886,174.70811 50,50 0 0 1 103.1279,116.87524 50,50 0 0 1 161.3641,156.3446 50,50 0 0 1 122.48744,214.97814"
       sodipodi:open="true" />
    <path
       style="opacity:0.991162;fill:#004455;stroke-width:0.518999;paint-order:stroke fill markers"
       id="path22"
       d="m 82.65271,139.19394 c 1.656705,1.54222 3.383272,3.0023 5.128781,4.44319 3.079692,2.61351 6.115077,5.27901 9.15488,7.93876 2.465768,2.1541 5.018219,4.20567 7.504999,6.33472 0.98729,0.86362 1.98069,1.7156 3.0618,2.45946 1.96338,1.70627 4.11351,2.36802 6.30269,3.41014 0.12114,0.0589 0.24396,0.11455 0.36342,0.17683 0.17838,0.093 1.46052,0.82915 0.72175,0.40229 -6.81036,-3.93497 -4.38446,-2.58936 -2.95182,-1.66015 1.73876,1.13978 3.67751,2.28364 5.53616,3.00923 0.20548,0.0802 0.35486,-0.26331 0.51828,-0.41146 0.20311,-0.18414 0.38628,-0.38915 0.57943,-0.58372 2.3501,-2.77056 4.71494,-5.52517 7.15293,-8.21961 2.35253,-2.47641 4.79911,-4.87375 7.3706,-7.12391 0.95475,-0.83543 1.83363,-1.53435 2.81199,-2.32724 1.26705,-0.98942 2.45135,-2.08335 3.79949,-2.96557 0.61371,-0.3762 1.179,-0.79662 1.7129,-1.27855 0.25501,-0.29292 0.62894,-0.37157 0.95049,-0.54866 0.1673,-0.0921 0.31573,-0.21551 0.48033,-0.31238 0.2899,-0.21471 0.14683,-0.11565 0.42793,-0.29901 0,0 -4.16271,-2.66155 -4.16271,-2.66155 v 0 c -0.27274,0.19076 -0.13675,0.0971 -0.40792,0.28102 -0.49826,0.3064 -1.05309,0.52628 -1.47539,0.94356 -0.51858,0.46297 -1.07675,0.86163 -1.654,1.24838 -1.26826,0.96655 -2.39068,2.09397 -3.57518,3.15771 -0.29009,0.26066 -2.54105,2.28217 -2.69344,2.42427 -2.50125,2.33229 -4.91217,4.76112 -7.31142,7.19721 -2.51747,2.6391 -4.97381,5.33642 -7.51557,7.95067 -0.19366,0.1557 -0.36891,0.33758 -0.58097,0.46711 -0.113,0.069 -0.48832,0.0446 -0.37893,0.11925 6.87454,4.68966 4.59701,2.58594 2.9632,1.71499 -2.05887,-1.43466 -4.26576,-2.6601 -6.52267,-3.75455 -1.77338,-0.79963 -5.36798,-2.53516 2.10575,1.45493 -0.3692,-0.28835 -0.77337,-0.50894 -1.15242,-0.7848 -0.73735,-0.53662 -1.4092,-1.1559 -2.12205,-1.7232 -2.54674,-2.151 -5.16876,-4.2115 -7.68376,-6.40086 -3.035276,-2.64101 -6.051063,-5.30385 -9.100737,-7.92813 -1.642748,-1.38028 -3.290197,-2.76163 -4.793565,-4.29489 z" />
    <path
       style="opacity:0.991162;fill:#004455;stroke-width:0.518999;paint-order:stroke fill markers"
       id="path23"
       d="m 86.709177,141.18985 c 1.943733,0.12754 3.889992,0.20859 5.837492,0.25633 1.895657,0.0434 3.791804,0.0517 5.687719,0.0839 0.371112,0.006 0.743474,-0.011 1.113313,0.0204 0.308081,0.0261 0.610061,0.10105 0.915089,0.15158 2.30901,1.42416 -1.180542,-0.75011 -2.690014,-1.36202 -0.271407,-0.11002 0.401529,0.42784 0.579046,0.66076 0.563549,0.73945 0.934849,1.58546 1.308909,2.42845 0.834849,2.23254 1.627799,4.47849 2.478779,6.70551 0.57656,1.55505 1.32578,3.03703 2.03809,4.53239 0.43443,0.99246 1.04985,1.88216 1.66555,2.76704 0.39485,0.59544 0.83645,1.15687 1.25518,1.73503 0.35199,0.51358 0.79303,0.95765 1.26153,1.36471 0.46574,0.41957 0.99396,0.76063 1.50205,1.12536 0.50214,0.31418 0.95192,0.70247 1.46034,1.00606 0.0647,0.0429 0.12929,0.0858 0.19393,0.12873 0,0 4.6119,1.7818 4.6119,1.7818 v 0 c -0.0684,-0.0378 -0.13683,-0.0756 -0.20525,-0.11339 -0.45368,-0.32708 0.047,0.0168 -0.46313,-0.27825 -0.36174,-0.2092 -0.65075,-0.5215 -1.01387,-0.72985 -0.52497,-0.32847 -1.01386,-0.71369 -1.5248,-1.06371 -0.15644,-0.1409 -0.33492,-0.25609 -0.4903,-0.39816 -0.0767,-0.0702 -0.13272,-0.16045 -0.20544,-0.23479 -0.2052,-0.20976 -0.4582,-0.37243 -0.60853,-0.6334 -0.42417,-0.58116 -0.87677,-1.14027 -1.27516,-1.74019 -0.64428,-0.87225 -1.30642,-1.74041 -1.77537,-2.72413 -0.73389,-1.4998 -1.48311,-2.99475 -2.13157,-4.5338 -0.87597,-2.21407 -1.72965,-4.43348 -2.44429,-6.70637 -0.35877,-0.87633 -0.71574,-1.74648 -1.24011,-2.5411 -0.16822,-0.25492 -0.29452,-0.5615 -0.54456,-0.7369 -3.816696,-2.67727 -3.194624,-2.37745 -5.57118,-3.29572 -0.305268,-0.0269 -0.609555,-0.0696 -0.915805,-0.0808 -0.784429,-0.0286 -1.569892,0.0118 -2.354839,0.009 -1.49129,-0.006 -1.472475,-0.01 -2.998089,-0.0472 -0.461793,-0.0114 -0.923555,-0.024 -1.385332,-0.036 -2.015665,-0.0827 -4.033983,-0.17138 -6.034434,-0.44803 z" />
    <path
       style="opacity:0.991162;fill:#004455;stroke-width:0.518999;paint-order:stroke fill markers"
       id="path25"
       d="m 136.04589,138.23456 c -1.46602,0.0493 -2.92979,0.14645 -4.39633,0.20127 -1.61082,0.052 -3.22252,0.0662 -4.83407,0.0643 -1.0677,-0.005 -2.1303,-0.0332 -3.19345,0.0714 -0.85302,0.04 -1.66583,0.31584 -2.49698,0.48575 -0.49512,0.0762 -0.95929,0.2608 -1.45735,0.32437 -0.63232,0.23036 -0.74958,0.14726 -1.04973,0.83804 -0.21833,1.27274 -0.20993,2.57651 -0.32666,3.86304 -0.3253,3.02694 -1.05643,5.99255 -1.87376,8.9191 -0.80642,2.65987 -1.94693,5.20601 -3.17585,7.69421 -0.13804,0.27529 -0.27609,0.55057 -0.41414,0.82585 0,0 4.1553,2.35394 4.1553,2.35394 v 0 c 0.12553,-0.28202 0.25107,-0.56404 0.37661,-0.84606 1.16755,-2.55402 2.28229,-5.14254 3.07828,-7.84025 0.81153,-2.93167 1.60075,-5.88443 2.08665,-8.88949 0.16513,-1.2188 0.21399,-2.44919 0.3998,-3.66327 0.0234,-0.057 0.0374,-0.11877 0.0701,-0.17103 0.0884,-0.14158 0.57183,-0.18985 0.7288,-0.24512 0.48433,-0.10839 0.95269,-0.27783 1.44317,-0.36169 0.80551,-0.19775 1.60658,-0.42555 2.44277,-0.44525 1.03918,-0.0855 2.08177,-0.0553 3.12359,-0.0718 1.59554,-0.0246 3.19106,-0.0524 4.7856,-0.11712 1.50887,-0.0555 3.01891,-0.14534 4.52908,-0.083 z" />
    <path
       style="opacity:0.991162;fill:#004455;stroke-width:0.518999;paint-order:stroke fill markers"
       id="path35"
       d="m 80.872742,166.81319 c 0.06591,2.1548 0.09506,4.30746 0.262998,6.45774 0.219665,2.46593 0.420783,4.9338 0.6638,7.3976 0.0857,0.89772 0.261557,1.77877 0.473811,2.65353 0,0 4.432149,2.11747 4.432149,2.11747 v 0 c -0.244496,-0.8754 -0.504619,-1.74561 -0.619067,-2.65129 -0.35192,-2.46532 -0.592114,-4.94573 -0.779931,-7.42866 -0.12877,-2.10356 -0.184838,-4.21394 -0.06361,-6.31969 z" />
    <path
       style="opacity:0.991162;fill:#004455;stroke-width:0.518999;paint-order:stroke fill markers"
       id="path36"
       d="m 80.448631,168.86278 c 0.584782,1.15824 1.207754,2.29437 1.857761,3.41719 1.770065,2.76986 2.315818,2.97493 6.208167,4.83438 0.195789,0.0935 0.418545,-0.11466 0.627814,-0.17199 1.261854,-0.68486 2.271281,-1.73265 3.177982,-2.82811 0.376245,-0.43159 0.655267,-0.92666 0.945798,-1.41512 0.05517,-0.0928 0.102547,-0.19216 0.174024,-0.27302 0.02037,-0.023 0.116174,-0.0102 0.08895,-0.0245 -1.427866,-0.74991 -2.875029,-1.46249 -4.312544,-2.19375 0.03596,0.0798 0.0877,0.15412 0.107884,0.23924 0.168796,0.71174 0.160626,1.49039 0.245057,2.21302 0.10242,0.87662 0.220932,1.75131 0.323715,2.62789 0.314968,2.69034 0.578466,5.38549 0.965155,8.06677 0.543353,3.14366 0.384945,1.79092 4.735859,4.49132 0,0 -3.847859,-3.11252 -3.847859,-3.11252 v 0 c 7.419146,4.63963 4.38523,3.67425 3.770698,2.10881 -0.171365,-0.43654 -0.27283,-0.94568 -0.380037,-1.39595 -0.506155,-2.67333 -0.840716,-5.37396 -1.068427,-8.08519 -0.154908,-1.70888 -0.348506,-3.42776 -0.308075,-5.14512 -5.705502,-3.10574 -3.503713,-3.42964 -5.58455,-0.59071 -0.69097,0.82003 -1.507252,1.78061 -2.466361,2.29341 -0.169323,0.0905 -0.357852,0.13931 -0.536776,0.20897 -1.840569,-0.1727 -1.111922,-0.17417 3.18821,2.19316 0.178179,0.0981 -0.280625,-0.29477 -0.412744,-0.44941 -0.442598,-0.51804 -0.83533,-1.07745 -1.229821,-1.63196 -0.648843,-1.08134 -1.284687,-2.1742 -1.769546,-3.34073 z" />
    <path
       style="opacity:0.991162;fill:#004455;stroke-width:0.518999;paint-order:stroke fill markers"
       id="path37"
       d="m 96.495403,171.85528 c 0.330684,2.1098 0.704093,4.21351 1.014286,6.32672 0.203676,1.41032 0.405733,2.82064 0.623062,4.22896 1.480592,0.61069 2.886949,1.44787 4.441779,1.83205 0.24344,0.0602 -0.0378,-0.50014 -0.0617,-0.74976 -0.0301,-0.31399 -0.0672,-0.62726 -0.10027,-0.94095 -0.1272,-1.20608 -0.23041,-2.40928 -0.30701,-3.61966 -0.1319,-2.10443 -0.20733,-4.2069 0.0164,-6.306 0.0704,-0.35286 0.18438,-1.46198 0.71451,-1.53354 0.0699,-0.009 0.13985,0.0186 0.20978,0.0279 0.76129,0.0825 1.48414,0.42955 2.13699,0.81366 -7.278967,-3.92659 -3.68369,-2.46074 -2.50357,-1.18857 0.23832,0.25691 0.2852,0.35968 0.46486,0.64634 0.43845,0.8255 -0.002,1.71292 -0.39611,2.46744 -0.19326,0.45277 -0.7705,0.78313 -0.8343,1.29433 -0.0121,0.0972 0.006,0.19575 0.008,0.29363 1.47619,0.83929 2.93158,1.71628 4.42858,2.51789 0.0778,0.0416 0.17662,-0.0112 0.2646,-0.005 0.10041,0.007 0.19986,0.0258 0.29855,0.0456 0.3924,0.0791 0.76646,0.21632 1.1419,0.35152 1.63946,0.81601 1.27325,0.64349 -3.33169,-1.92332 -0.14129,-0.0788 0.27448,0.17172 0.40541,0.2667 0.38773,0.28127 0.66405,0.58828 0.93868,0.97583 0.43426,0.85201 0.56278,1.80639 0.33751,2.73284 -0.43576,1.01453 -1.47697,1.4018 -2.45265,1.7292 -0.96033,0.21631 -2.17369,0.55944 -3.15043,0.21558 -0.14627,-0.0515 -0.27129,-0.15031 -0.40694,-0.22547 1.28369,0.72236 2.55794,1.46176 3.85107,2.16708 0.11141,0.0608 -0.20704,-0.14761 -0.3023,-0.23146 -0.30794,-0.27103 -0.49371,-0.59306 -0.6353,-0.97113 -0.0127,-0.0622 -0.0254,-0.1243 -0.0381,-0.18646 0,0 -4.426658,-2.20233 -4.426658,-2.20233 v 0 c 0.0021,0.0924 0.0043,0.18488 0.0065,0.27732 0.573932,2.44026 3.383508,2.99608 5.386718,4.16549 0.15747,0.0407 0.31178,0.0966 0.47242,0.12204 1.08738,0.17218 2.20585,-0.14963 3.24382,-0.42565 1.17056,-0.42902 2.22211,-0.89295 2.74824,-2.10401 0.0458,-0.1636 0.10621,-0.32378 0.13733,-0.49079 0.16202,-0.86949 -0.0544,-1.76346 -0.29947,-2.59334 -0.30382,-0.58001 -0.68386,-1.12358 -1.2639,-1.46561 -4.38516,-2.58577 -3.00235,-2.01652 -5.083,-2.83379 -0.37556,-0.11602 -0.46992,-0.15399 -0.84686,-0.23716 -0.22653,-0.05 -0.45962,-0.0675 -0.68532,-0.12113 -0.0762,-0.0181 -0.14812,-0.051 -0.22219,-0.0765 1.36137,0.80013 2.72275,1.60027 4.08412,2.4004 -0.0649,0.0375 -0.1233,0.0899 -0.19476,0.11262 -0.1825,0.0581 0.0794,-0.27036 0.20537,-0.45572 0.26344,-0.38753 0.18468,-0.27126 0.45564,-0.69747 0.36182,-0.70884 0.82865,-1.68211 0.75522,-2.50167 -0.012,-0.13437 -0.0817,-0.25715 -0.12252,-0.38572 -0.37156,-0.74791 -0.86619,-1.38463 -1.59756,-1.81797 -1.53793,-0.91122 -3.09165,-1.79552 -4.63747,-2.69328 -0.74765,-0.3568 -1.540124,-0.72827 -2.389191,-0.58292 -0.109439,0.0453 -0.226623,0.0751 -0.328321,0.13575 -0.654518,0.39058 -0.718235,1.30982 -0.812411,1.9701 -0.150656,2.14113 -0.09905,4.28102 0.05284,6.4218 0.05241,0.8391 0.09617,1.67874 0.149913,2.51776 0.0013,0.0195 0.135803,1.85043 0.14106,1.97529 0.0094,0.22239 -0.177266,0.53746 0.0032,0.66775 1.37174,0.99031 2.93847,1.67777 4.40771,2.51666 -0.23919,-0.41269 -0.29922,-0.90807 -0.388,-1.3707 -0.18266,-0.95176 -0.30407,-1.91215 -0.46495,-2.86761 -0.32527,-2.07752 -0.7322,-4.14501 -0.8791,-6.2461 z" />
    <path
       style="opacity:0.991162;fill:#004455;stroke-width:0.518999;paint-order:stroke fill markers"
       id="path38"
       d="m 114.64105,169.74009 c -1.04024,-0.2008 -1.62366,-0.285 -2.63872,0.11177 -0.18375,0.10622 -0.57275,0.31072 -0.72479,0.47555 -0.479,0.5193 -0.60752,1.20746 -0.70121,1.87706 -0.0813,1.02961 0.25464,1.97027 0.75594,2.84993 0.68748,0.97772 1.52739,1.83705 2.46014,2.5805 0.80149,0.56444 1.6566,1.04343 2.4628,1.60157 0.60638,0.39571 0.77442,0.80518 0.89108,1.49764 0.0409,0.68413 -0.41529,1.09831 -0.91749,1.47881 -0.74566,0.50511 -1.61542,0.70707 -2.49516,0.81634 -0.7472,0.0944 -1.4883,0.043 -2.18782,-0.23995 -2.05288,-1.02976 5.11252,1.09466 3.68579,2.21106 0,0 -4.38071,-2.31982 -4.38071,-2.31982 v 0 c -0.0445,0.13888 -0.2528,0.3326 -0.1336,0.41664 3.0259,2.13331 2.88817,2.06169 4.71766,2.70029 0.7606,0.17031 1.53629,0.18744 2.30561,0.0497 0.93792,-0.17356 1.84767,-0.46574 2.63513,-1.02224 0.63184,-0.50486 1.13426,-1.0716 1.18378,-1.91904 -0.0838,-0.7341 -0.11449,-1.36801 -0.73782,-1.85447 -0.7766,-0.62207 -1.66024,-1.08522 -2.50096,-1.61241 -0.20621,-0.14942 -0.68777,-0.49219 -0.87351,-0.65306 -0.61046,-0.52872 -1.12754,-1.15464 -1.65537,-1.76199 -0.51652,-0.76934 -0.89687,-1.60327 -0.88861,-2.55042 0.0852,-0.90662 0.23396,-1.51275 1.14541,-1.87492 0.87041,-0.22824 1.66437,-0.10283 2.5153,0.16183 z" />
    <path
       style="opacity:0.991162;fill:#004455;stroke-width:0.518999;paint-order:stroke fill markers"
       id="path39"
       d="m 120.5318,172.376 c 0.32171,1.32126 0.57618,2.6576 0.80876,3.99705 0.23283,1.61787 0.51765,3.22838 0.83138,4.83244 0.0411,0.21991 0.0798,0.44027 0.12331,0.65972 0.0386,0.19489 0.08,0.38924 0.12287,0.58322 0.0271,0.12249 -0.0167,0.29584 0.0872,0.36613 1.92678,1.30341 4.39285,4.38039 4.57639,1.67495 -0.13062,-2.09375 -0.88053,-4.09209 -1.45474,-6.09333 -0.37808,-1.23327 -0.70976,-2.47958 -1.04665,-3.7244 -0.18412,-0.68032 -0.39825,-1.33888 -0.49803,-2.03668 0.0399,-0.0831 0.0583,-0.18047 0.11956,-0.24936 0.40248,-0.45264 1.65611,-0.38024 2.18686,-0.36645 1.50693,0.087 3.0156,0.14034 4.52396,0.19584 0.55596,0.02 1.1119,0.0408 1.66816,0.0503 0.15144,0.003 0.30541,-0.0218 0.45434,0.006 0.11707,0.0216 0.21931,0.0927 0.32896,0.13911 -1.35317,-0.75032 -2.70634,-1.50064 -4.05951,-2.25096 0.10301,0.27846 0.0894,0.11946 -0.0521,0.4759 0,0 4.2599,2.41393 4.2599,2.41393 v 0 c 0.31729,-0.60695 0.22548,-0.30057 0.31034,-0.90796 -1.45387,-0.90446 -2.88032,-1.85455 -4.3616,-2.71339 -0.11007,-0.0638 -0.25293,-0.0297 -0.38002,-0.0358 -0.6863,-0.0328 -1.37622,0.0115 -2.06263,-0.0248 -1.51919,-0.0389 -3.03539,-0.12928 -4.55315,-0.19835 -0.84,0.0205 -1.99508,0.0133 -2.53065,0.80861 -0.10323,0.15328 -0.14904,0.33823 -0.22357,0.50734 0.0267,0.19014 0.0348,0.38385 0.0802,0.57042 0.13146,0.54038 0.35118,1.05547 0.51668,1.58641 0.3895,1.24958 0.75133,2.50804 1.12597,3.76208 0.53668,1.91342 1.18606,3.82871 1.2769,5.8289 -0.028,0.79342 -0.0669,0.0107 0.15034,0.13241 1.3989,0.78371 2.68848,1.75313 4.08973,2.53264 0.11028,0.0614 -0.11695,-0.22486 -0.1566,-0.34466 -0.10814,-0.32669 -0.21911,-0.9205 -0.28578,-1.24433 -0.32499,-1.60112 -0.66028,-3.20346 -0.85271,-4.82715 -0.21724,-1.32164 -0.4774,-2.63617 -0.67662,-3.96066 z" />
    <path
       style="opacity:0.991162;fill:#004455;stroke-width:0.518999;paint-order:stroke fill markers"
       id="path40"
       d="m 128.13115,179.78543 c 1.43531,-0.1379 2.87873,-0.16887 4.31974,-0.18967 0.16595,-1.4e-4 0.33191,-2.6e-4 0.49786,-5.2e-4 0,0 -3.95718,-2.86099 -3.95718,-2.86099 v 0 c -0.15662,0.007 -0.31325,0.0148 -0.46987,0.0221 -1.46212,0.0547 -2.92359,0.12482 -4.38596,0.17271 z" />
    <path
       style="opacity:0.991162;fill:#004455;stroke-width:0.518999;paint-order:stroke fill markers"
       id="path41"
       d="m 127.87303,184.35562 c 1.80764,0.30169 3.64112,0.4178 5.46951,0.51148 2.29321,0.17058 4.59107,0.21696 6.88482,0.38019 0.79694,0.10388 1.61991,0.0535 2.40578,0.23636 0,0 -3.96766,-2.95489 -3.96766,-2.95489 v 0 c -0.75419,0.0145 -1.50725,-0.076 -2.26062,-0.0949 -2.29306,-0.12001 -4.58816,-0.19773 -6.87822,-0.37179 -1.87837,-0.11342 -3.75184,-0.28418 -5.6047,-0.62367 z" />
  </g>
</svg>
